<mxfile host="app.diagrams.net" modified="2024-03-25T08:48:41.354Z" agent="Mozilla/5.0 (Macintosh; Intel Mac OS X 10_15_7) AppleWebKit/537.36 (KHTML, like Gecko) Chrome/122.0.0.0 Safari/537.36" etag="aOmXR_XPtpSjJhNyYiCE" version="24.0.7" type="github">
  <diagram name="Page-1" id="e7e014a7-5840-1c2e-5031-d8a46d1fe8dd">
    <mxGraphModel dx="3083" dy="995" grid="1" gridSize="10" guides="1" tooltips="1" connect="1" arrows="1" fold="1" page="1" pageScale="1" pageWidth="1169" pageHeight="826" background="none" math="0" shadow="0">
      <root>
        <mxCell id="0" />
        <mxCell id="1" parent="0" />
        <mxCell id="2" value="Thread:HeartBeat" style="swimlane;whiteSpace=wrap" parent="1" vertex="1">
          <mxGeometry x="-1060" y="100" width="560" height="570" as="geometry" />
        </mxCell>
        <mxCell id="5" value="" style="ellipse;shape=startState;fillColor=#000000;strokeColor=#ff0000;" parent="2" vertex="1">
          <mxGeometry x="70" y="32" width="30" height="30" as="geometry" />
        </mxCell>
        <mxCell id="6" value="" style="edgeStyle=elbowEdgeStyle;elbow=horizontal;verticalAlign=bottom;endArrow=open;endSize=8;strokeColor=#FF0000;endFill=1;rounded=0;entryX=0.5;entryY=0;entryDx=0;entryDy=0;" parent="2" source="5" target="XbB_H-YyX2xKbeKxPgXe-77" edge="1">
          <mxGeometry x="100" y="40" as="geometry">
            <mxPoint x="-60" y="142" as="targetPoint" />
          </mxGeometry>
        </mxCell>
        <mxCell id="8" value="GetAllShards" style="" parent="2" vertex="1">
          <mxGeometry x="40" y="237" width="109" height="50" as="geometry" />
        </mxCell>
        <mxCell id="10" value="CollectShardStatus" style="fillColor=#f8cecc;strokeColor=#b85450;" parent="2" vertex="1">
          <mxGeometry x="40" y="342" width="110" height="50" as="geometry" />
        </mxCell>
        <mxCell id="11" value="" style="endArrow=open;strokeColor=#FF0000;endFill=1;rounded=0" parent="2" source="8" target="10" edge="1">
          <mxGeometry relative="1" as="geometry" />
        </mxCell>
        <mxCell id="XbB_H-YyX2xKbeKxPgXe-85" value="" style="edgeStyle=orthogonalEdgeStyle;rounded=0;orthogonalLoop=1;jettySize=auto;html=1;strokeColor=#FF3333;" parent="2" source="XbB_H-YyX2xKbeKxPgXe-77" target="XbB_H-YyX2xKbeKxPgXe-78" edge="1">
          <mxGeometry relative="1" as="geometry" />
        </mxCell>
        <mxCell id="XbB_H-YyX2xKbeKxPgXe-86" value="" style="edgeStyle=orthogonalEdgeStyle;rounded=0;orthogonalLoop=1;jettySize=auto;html=1;strokeColor=#FF3333;" parent="2" source="XbB_H-YyX2xKbeKxPgXe-77" target="8" edge="1">
          <mxGeometry relative="1" as="geometry" />
        </mxCell>
        <mxCell id="XbB_H-YyX2xKbeKxPgXe-77" value="DiffTableGroup" style="" parent="2" vertex="1">
          <mxGeometry x="20" y="127.5" width="150" height="50" as="geometry" />
        </mxCell>
        <mxCell id="XbB_H-YyX2xKbeKxPgXe-71" value="" style="shape=line;strokeWidth=6;strokeColor=#ff0000;rotation=90" parent="2" vertex="1">
          <mxGeometry x="450" y="129.5" width="50" height="15" as="geometry" />
        </mxCell>
        <mxCell id="XbB_H-YyX2xKbeKxPgXe-69" value="BuildCreateTableSchedule" style="" parent="2" vertex="1">
          <mxGeometry x="350" y="42" width="150" height="50" as="geometry" />
        </mxCell>
        <mxCell id="XbB_H-YyX2xKbeKxPgXe-73" value="" style="endArrow=open;strokeColor=#FF0000;endFill=1;rounded=0;exitX=0.25;exitY=1;exitDx=0;exitDy=0;entryX=0.25;entryY=0.5;entryDx=0;entryDy=0;entryPerimeter=0;" parent="2" source="XbB_H-YyX2xKbeKxPgXe-69" target="XbB_H-YyX2xKbeKxPgXe-71" edge="1">
          <mxGeometry relative="1" as="geometry">
            <mxPoint x="575" y="282" as="sourcePoint" />
            <mxPoint x="575" y="342" as="targetPoint" />
          </mxGeometry>
        </mxCell>
        <mxCell id="20" value="" style="endArrow=open;strokeColor=#FF0000;endFill=1;rounded=0;exitX=1;exitY=0.5;exitDx=0;exitDy=0;entryX=0.455;entryY=0.466;entryDx=0;entryDy=0;entryPerimeter=0;" parent="2" source="7" target="XbB_H-YyX2xKbeKxPgXe-71" edge="1">
          <mxGeometry relative="1" as="geometry" />
        </mxCell>
        <mxCell id="XbB_H-YyX2xKbeKxPgXe-74" value="" style="endArrow=open;strokeColor=#FF0000;endFill=1;rounded=0;exitX=0.353;exitY=0.035;exitDx=0;exitDy=0;entryX=0.75;entryY=0.5;entryDx=0;entryDy=0;entryPerimeter=0;exitPerimeter=0;" parent="2" source="XbB_H-YyX2xKbeKxPgXe-70" target="XbB_H-YyX2xKbeKxPgXe-71" edge="1">
          <mxGeometry relative="1" as="geometry">
            <mxPoint x="398" y="122" as="sourcePoint" />
            <mxPoint x="485" y="145" as="targetPoint" />
          </mxGeometry>
        </mxCell>
        <mxCell id="7" value="BuildUpdateTableSchedule" style="" parent="2" vertex="1">
          <mxGeometry x="270" y="112" width="150" height="50" as="geometry" />
        </mxCell>
        <mxCell id="XbB_H-YyX2xKbeKxPgXe-70" value="BuildRemoveTableSchedule" style="" parent="2" vertex="1">
          <mxGeometry x="345" y="202" width="160" height="50" as="geometry" />
        </mxCell>
        <mxCell id="XbB_H-YyX2xKbeKxPgXe-82" value="" style="edgeStyle=orthogonalEdgeStyle;rounded=0;orthogonalLoop=1;jettySize=auto;html=1;strokeColor=#FF3333;" parent="2" source="XbB_H-YyX2xKbeKxPgXe-78" target="7" edge="1">
          <mxGeometry relative="1" as="geometry" />
        </mxCell>
        <mxCell id="XbB_H-YyX2xKbeKxPgXe-83" value="" style="edgeStyle=orthogonalEdgeStyle;rounded=0;orthogonalLoop=1;jettySize=auto;html=1;strokeColor=#FF3333;" parent="2" edge="1">
          <mxGeometry relative="1" as="geometry">
            <mxPoint x="228" y="148" as="sourcePoint" />
            <mxPoint x="350" y="222" as="targetPoint" />
            <Array as="points">
              <mxPoint x="228" y="153" />
              <mxPoint x="253" y="153" />
              <mxPoint x="253" y="222" />
              <mxPoint x="348" y="222" />
            </Array>
          </mxGeometry>
        </mxCell>
        <mxCell id="XbB_H-YyX2xKbeKxPgXe-84" value="" style="edgeStyle=orthogonalEdgeStyle;rounded=0;orthogonalLoop=1;jettySize=auto;html=1;entryX=0;entryY=0.5;entryDx=0;entryDy=0;strokeColor=#FF3333;" parent="2" edge="1">
          <mxGeometry relative="1" as="geometry">
            <mxPoint x="225.5" y="152" as="sourcePoint" />
            <mxPoint x="343" y="67" as="targetPoint" />
            <Array as="points">
              <mxPoint x="253" y="152" />
              <mxPoint x="253" y="67" />
            </Array>
          </mxGeometry>
        </mxCell>
        <mxCell id="XbB_H-YyX2xKbeKxPgXe-78" value="" style="shape=line;strokeWidth=6;strokeColor=#ff0000;rotation=90" parent="2" vertex="1">
          <mxGeometry x="200" y="144.5" width="50" height="15" as="geometry" />
        </mxCell>
        <mxCell id="3" value="Threads:Schedule&amp;SchedulPool" style="swimlane;whiteSpace=wrap;fillColor=#f5f5f5;fontColor=#333333;strokeColor=#666666;" parent="1" vertex="1">
          <mxGeometry x="-500" y="100" width="308" height="570" as="geometry" />
        </mxCell>
        <mxCell id="13" value="" style="ellipse;shape=startState;fillColor=#000000;strokeColor=#ff0000;" parent="3" vertex="1">
          <mxGeometry x="60" y="40" width="30" height="30" as="geometry" />
        </mxCell>
        <mxCell id="14" value="" style="edgeStyle=elbowEdgeStyle;elbow=horizontal;verticalAlign=bottom;endArrow=open;endSize=8;strokeColor=#000000;endFill=1;rounded=0;entryX=0.5;entryY=0;entryDx=0;entryDy=0;" parent="3" source="13" target="XbB_H-YyX2xKbeKxPgXe-68" edge="1">
          <mxGeometry x="40" y="20" as="geometry">
            <mxPoint x="55" y="90" as="targetPoint" />
          </mxGeometry>
        </mxCell>
        <mxCell id="XbB_H-YyX2xKbeKxPgXe-109" value="" style="edgeStyle=orthogonalEdgeStyle;rounded=0;orthogonalLoop=1;jettySize=auto;html=1;entryX=0;entryY=0.5;entryDx=0;entryDy=0;dashed=1;" parent="3" edge="1">
          <mxGeometry relative="1" as="geometry">
            <mxPoint x="120" y="239" as="sourcePoint" />
            <mxPoint x="298" y="136.5" as="targetPoint" />
            <Array as="points">
              <mxPoint x="278" y="239" />
              <mxPoint x="278" y="137" />
            </Array>
          </mxGeometry>
        </mxCell>
        <mxCell id="15" value="RemoveShardStep" style="fillColor=#f8cecc;strokeColor=#b85450;" parent="3" vertex="1">
          <mxGeometry x="10" y="212" width="110" height="50" as="geometry" />
        </mxCell>
        <mxCell id="34" value="" style="whiteSpace=wrap;strokeColor=#009900;fillColor=#009900;" parent="3" vertex="1">
          <mxGeometry x="298" y="112" width="5" height="45" as="geometry" />
        </mxCell>
        <mxCell id="XbB_H-YyX2xKbeKxPgXe-89" value="" style="edgeStyle=orthogonalEdgeStyle;rounded=0;orthogonalLoop=1;jettySize=auto;html=1;" parent="3" source="XbB_H-YyX2xKbeKxPgXe-68" target="XbB_H-YyX2xKbeKxPgXe-88" edge="1">
          <mxGeometry relative="1" as="geometry" />
        </mxCell>
        <mxCell id="XbB_H-YyX2xKbeKxPgXe-90" value="" style="edgeStyle=orthogonalEdgeStyle;rounded=0;orthogonalLoop=1;jettySize=auto;html=1;" parent="3" source="XbB_H-YyX2xKbeKxPgXe-68" target="XbB_H-YyX2xKbeKxPgXe-88" edge="1">
          <mxGeometry relative="1" as="geometry" />
        </mxCell>
        <mxCell id="XbB_H-YyX2xKbeKxPgXe-91" value="" style="edgeStyle=orthogonalEdgeStyle;rounded=0;orthogonalLoop=1;jettySize=auto;html=1;" parent="3" source="XbB_H-YyX2xKbeKxPgXe-68" target="15" edge="1">
          <mxGeometry relative="1" as="geometry" />
        </mxCell>
        <mxCell id="XbB_H-YyX2xKbeKxPgXe-68" value="ScheduleWrapper" style="" parent="3" vertex="1">
          <mxGeometry x="10" y="112" width="110" height="50" as="geometry" />
        </mxCell>
        <mxCell id="XbB_H-YyX2xKbeKxPgXe-106" value="" style="edgeStyle=orthogonalEdgeStyle;rounded=0;orthogonalLoop=1;jettySize=auto;html=1;strokeColor=#009900;strokeWidth=4;" parent="3" source="XbB_H-YyX2xKbeKxPgXe-88" edge="1">
          <mxGeometry relative="1" as="geometry">
            <mxPoint x="298" y="137" as="targetPoint" />
          </mxGeometry>
        </mxCell>
        <mxCell id="XbB_H-YyX2xKbeKxPgXe-88" value="LoadShardStep" style="" parent="3" vertex="1">
          <mxGeometry x="158" y="112" width="110" height="50" as="geometry" />
        </mxCell>
        <mxCell id="4" value="GetTableState" style="swimlane;whiteSpace=wrap;fillColor=#dae8fc;strokeColor=#6c8ebf;" parent="1" vertex="1">
          <mxGeometry x="-190" y="100" width="190" height="570" as="geometry">
            <mxRectangle x="620" y="128" width="130" height="30" as="alternateBounds" />
          </mxGeometry>
        </mxCell>
        <mxCell id="XbB_H-YyX2xKbeKxPgXe-96" value="" style="edgeStyle=orthogonalEdgeStyle;rounded=0;orthogonalLoop=1;jettySize=auto;html=1;strokeColor=#999900;" parent="4" source="33" target="XbB_H-YyX2xKbeKxPgXe-95" edge="1">
          <mxGeometry relative="1" as="geometry" />
        </mxCell>
        <mxCell id="33" value="GetAllShards" style="" parent="4" vertex="1">
          <mxGeometry x="41" y="82" width="115" height="48" as="geometry" />
        </mxCell>
        <mxCell id="XbB_H-YyX2xKbeKxPgXe-92" value="" style="edgeStyle=orthogonalEdgeStyle;rounded=0;orthogonalLoop=1;jettySize=auto;html=1;strokeColor=#999900;" parent="4" source="38" target="33" edge="1">
          <mxGeometry relative="1" as="geometry" />
        </mxCell>
        <mxCell id="38" value="" style="ellipse;shape=endState;fillColor=#000000;strokeColor=#ff0000" parent="4" vertex="1">
          <mxGeometry x="81" y="22" width="30" height="30" as="geometry" />
        </mxCell>
        <mxCell id="XbB_H-YyX2xKbeKxPgXe-95" value="GetShardState" style="fillColor=#f8cecc;strokeColor=#b85450;" parent="4" vertex="1">
          <mxGeometry x="43" y="260" width="110" height="50" as="geometry" />
        </mxCell>
        <mxCell id="XbB_H-YyX2xKbeKxPgXe-41" value="Thread:ConsumeCompactJob" style="swimlane;whiteSpace=wrap;fillColor=#99FFCC;" parent="1" vertex="1">
          <mxGeometry y="100" width="230" height="570" as="geometry" />
        </mxCell>
        <mxCell id="XbB_H-YyX2xKbeKxPgXe-42" value="" style="ellipse;shape=startState;fillColor=#000000;strokeColor=#ff0000;" parent="XbB_H-YyX2xKbeKxPgXe-41" vertex="1">
          <mxGeometry x="100" y="40" width="30" height="30" as="geometry" />
        </mxCell>
        <mxCell id="XbB_H-YyX2xKbeKxPgXe-43" value="" style="edgeStyle=elbowEdgeStyle;elbow=horizontal;verticalAlign=bottom;endArrow=open;endSize=8;strokeColor=#FF0000;endFill=1;rounded=0" parent="XbB_H-YyX2xKbeKxPgXe-41" source="XbB_H-YyX2xKbeKxPgXe-42" target="XbB_H-YyX2xKbeKxPgXe-44" edge="1">
          <mxGeometry x="100" y="40" as="geometry">
            <mxPoint x="115" y="110" as="targetPoint" />
          </mxGeometry>
        </mxCell>
        <mxCell id="XbB_H-YyX2xKbeKxPgXe-44" value="compact_job_queue" style="" parent="XbB_H-YyX2xKbeKxPgXe-41" vertex="1">
          <mxGeometry x="60" y="110" width="120" height="50" as="geometry" />
        </mxCell>
        <mxCell id="XbB_H-YyX2xKbeKxPgXe-45" value="GetCompactDBName" style="" parent="XbB_H-YyX2xKbeKxPgXe-41" vertex="1">
          <mxGeometry x="60" y="220" width="120" height="50" as="geometry" />
        </mxCell>
        <mxCell id="XbB_H-YyX2xKbeKxPgXe-46" value="" style="endArrow=open;strokeColor=#FF0000;endFill=1;rounded=0" parent="XbB_H-YyX2xKbeKxPgXe-41" source="XbB_H-YyX2xKbeKxPgXe-44" target="XbB_H-YyX2xKbeKxPgXe-45" edge="1">
          <mxGeometry relative="1" as="geometry" />
        </mxCell>
        <mxCell id="XbB_H-YyX2xKbeKxPgXe-98" value="" style="edgeStyle=orthogonalEdgeStyle;rounded=0;orthogonalLoop=1;jettySize=auto;html=1;" parent="XbB_H-YyX2xKbeKxPgXe-41" source="XbB_H-YyX2xKbeKxPgXe-47" target="XbB_H-YyX2xKbeKxPgXe-97" edge="1">
          <mxGeometry relative="1" as="geometry" />
        </mxCell>
        <mxCell id="XbB_H-YyX2xKbeKxPgXe-47" value="CompactRange" style="fillColor=#f8cecc;strokeColor=#b85450;" parent="XbB_H-YyX2xKbeKxPgXe-41" vertex="1">
          <mxGeometry x="60" y="325" width="120" height="50" as="geometry" />
        </mxCell>
        <mxCell id="XbB_H-YyX2xKbeKxPgXe-48" value="" style="endArrow=open;strokeColor=#FF0000;endFill=1;rounded=0" parent="XbB_H-YyX2xKbeKxPgXe-41" source="XbB_H-YyX2xKbeKxPgXe-45" target="XbB_H-YyX2xKbeKxPgXe-47" edge="1">
          <mxGeometry relative="1" as="geometry" />
        </mxCell>
        <mxCell id="XbB_H-YyX2xKbeKxPgXe-49" value="" style="edgeStyle=elbowEdgeStyle;elbow=horizontal;strokeColor=#FF0000;endArrow=open;endFill=1;rounded=0;exitX=0;exitY=0.5;exitDx=0;exitDy=0;" parent="XbB_H-YyX2xKbeKxPgXe-41" source="XbB_H-YyX2xKbeKxPgXe-97" target="XbB_H-YyX2xKbeKxPgXe-44" edge="1">
          <mxGeometry width="100" height="100" relative="1" as="geometry">
            <mxPoint x="160" y="290" as="sourcePoint" />
            <mxPoint x="260" y="190" as="targetPoint" />
            <Array as="points">
              <mxPoint x="30" y="250" />
            </Array>
          </mxGeometry>
        </mxCell>
        <mxCell id="XbB_H-YyX2xKbeKxPgXe-97" value="DelDBManualCompactStatus" style="" parent="XbB_H-YyX2xKbeKxPgXe-41" vertex="1">
          <mxGeometry x="35" y="455" width="170" height="50" as="geometry" />
        </mxCell>
        <mxCell id="XbB_H-YyX2xKbeKxPgXe-50" value="Thread:ReplicateThread" style="swimlane;whiteSpace=wrap;fillColor=#f8cecc;strokeColor=#b85450;" parent="1" vertex="1">
          <mxGeometry x="230" y="100" width="190" height="570" as="geometry" />
        </mxCell>
        <mxCell id="XbB_H-YyX2xKbeKxPgXe-51" value="" style="ellipse;shape=startState;fillColor=#000000;strokeColor=#ff0000;" parent="XbB_H-YyX2xKbeKxPgXe-50" vertex="1">
          <mxGeometry x="91" y="40" width="30" height="30" as="geometry" />
        </mxCell>
        <mxCell id="XbB_H-YyX2xKbeKxPgXe-52" value="" style="edgeStyle=elbowEdgeStyle;elbow=horizontal;verticalAlign=bottom;endArrow=open;endSize=8;strokeColor=#000000;endFill=1;rounded=0" parent="XbB_H-YyX2xKbeKxPgXe-50" source="XbB_H-YyX2xKbeKxPgXe-51" target="XbB_H-YyX2xKbeKxPgXe-53" edge="1">
          <mxGeometry x="100" y="40" as="geometry">
            <mxPoint x="115" y="110" as="targetPoint" />
          </mxGeometry>
        </mxCell>
        <mxCell id="XbB_H-YyX2xKbeKxPgXe-140" value="" style="edgeStyle=orthogonalEdgeStyle;rounded=0;orthogonalLoop=1;jettySize=auto;html=1;" parent="XbB_H-YyX2xKbeKxPgXe-50" source="XbB_H-YyX2xKbeKxPgXe-53" target="XbB_H-YyX2xKbeKxPgXe-54" edge="1">
          <mxGeometry relative="1" as="geometry" />
        </mxCell>
        <mxCell id="XbB_H-YyX2xKbeKxPgXe-53" value="CheckIfNeedDeltaUpdate" style="fillColor=#f8cecc;strokeColor=#b85450;" parent="XbB_H-YyX2xKbeKxPgXe-50" vertex="1">
          <mxGeometry x="40" y="110" width="130" height="50" as="geometry" />
        </mxCell>
        <mxCell id="XbB_H-YyX2xKbeKxPgXe-54" value="DeltaReplicateTask" style="" parent="XbB_H-YyX2xKbeKxPgXe-50" vertex="1">
          <mxGeometry x="40" y="200" width="130" height="50" as="geometry" />
        </mxCell>
        <mxCell id="XbB_H-YyX2xKbeKxPgXe-144" value="" style="edgeStyle=orthogonalEdgeStyle;rounded=0;orthogonalLoop=1;jettySize=auto;html=1;" parent="XbB_H-YyX2xKbeKxPgXe-50" source="XbB_H-YyX2xKbeKxPgXe-56" target="XbB_H-YyX2xKbeKxPgXe-143" edge="1">
          <mxGeometry relative="1" as="geometry" />
        </mxCell>
        <mxCell id="XbB_H-YyX2xKbeKxPgXe-56" value="CheckIfNeedFullUpdate" style="" parent="XbB_H-YyX2xKbeKxPgXe-50" vertex="1">
          <mxGeometry x="40" y="300" width="130" height="50" as="geometry" />
        </mxCell>
        <mxCell id="XbB_H-YyX2xKbeKxPgXe-57" value="" style="endArrow=open;strokeColor=#000000;endFill=1;rounded=0" parent="XbB_H-YyX2xKbeKxPgXe-50" source="XbB_H-YyX2xKbeKxPgXe-54" target="XbB_H-YyX2xKbeKxPgXe-56" edge="1">
          <mxGeometry relative="1" as="geometry" />
        </mxCell>
        <mxCell id="XbB_H-YyX2xKbeKxPgXe-58" value="" style="edgeStyle=elbowEdgeStyle;elbow=horizontal;strokeColor=#000000;endArrow=open;endFill=1;rounded=0;exitX=0;exitY=0.5;exitDx=0;exitDy=0;" parent="XbB_H-YyX2xKbeKxPgXe-50" source="XbB_H-YyX2xKbeKxPgXe-143" target="XbB_H-YyX2xKbeKxPgXe-53" edge="1">
          <mxGeometry width="100" height="100" relative="1" as="geometry">
            <mxPoint x="160" y="290" as="sourcePoint" />
            <mxPoint x="260" y="190" as="targetPoint" />
            <Array as="points">
              <mxPoint x="30" y="250" />
            </Array>
          </mxGeometry>
        </mxCell>
        <mxCell id="XbB_H-YyX2xKbeKxPgXe-143" value="RequestFullReplicate" style="" parent="XbB_H-YyX2xKbeKxPgXe-50" vertex="1">
          <mxGeometry x="40" y="430" width="130" height="50" as="geometry" />
        </mxCell>
        <mxCell id="XbB_H-YyX2xKbeKxPgXe-59" value="Threads: DeltaReplicateTask" style="swimlane;whiteSpace=wrap;fillColor=#e1d5e7;strokeColor=#9673a6;" parent="1" vertex="1">
          <mxGeometry x="420" y="100" width="190" height="570" as="geometry" />
        </mxCell>
        <mxCell id="XbB_H-YyX2xKbeKxPgXe-60" value="" style="ellipse;shape=startState;fillColor=#000000;strokeColor=#ff0000;" parent="XbB_H-YyX2xKbeKxPgXe-59" vertex="1">
          <mxGeometry x="92" y="40" width="30" height="30" as="geometry" />
        </mxCell>
        <mxCell id="XbB_H-YyX2xKbeKxPgXe-61" value="" style="edgeStyle=elbowEdgeStyle;elbow=horizontal;verticalAlign=bottom;endArrow=open;endSize=8;strokeColor=#FF0000;endFill=1;rounded=0" parent="XbB_H-YyX2xKbeKxPgXe-59" source="XbB_H-YyX2xKbeKxPgXe-60" target="XbB_H-YyX2xKbeKxPgXe-62" edge="1">
          <mxGeometry x="100" y="40" as="geometry">
            <mxPoint x="107" y="110" as="targetPoint" />
          </mxGeometry>
        </mxCell>
        <mxCell id="XbB_H-YyX2xKbeKxPgXe-62" value="DeltaReplicate" style="" parent="XbB_H-YyX2xKbeKxPgXe-59" vertex="1">
          <mxGeometry x="52" y="110" width="110" height="50" as="geometry" />
        </mxCell>
        <mxCell id="XbB_H-YyX2xKbeKxPgXe-152" value="" style="edgeStyle=orthogonalEdgeStyle;rounded=0;orthogonalLoop=1;jettySize=auto;html=1;strokeColor=#FF3333;" parent="XbB_H-YyX2xKbeKxPgXe-59" source="XbB_H-YyX2xKbeKxPgXe-63" target="XbB_H-YyX2xKbeKxPgXe-151" edge="1">
          <mxGeometry relative="1" as="geometry" />
        </mxCell>
        <mxCell id="XbB_H-YyX2xKbeKxPgXe-63" value="ApplyUpdates" style="" parent="XbB_H-YyX2xKbeKxPgXe-59" vertex="1">
          <mxGeometry x="52" y="220" width="110" height="50" as="geometry" />
        </mxCell>
        <mxCell id="XbB_H-YyX2xKbeKxPgXe-64" value="" style="endArrow=open;strokeColor=#FF0000;endFill=1;rounded=0" parent="XbB_H-YyX2xKbeKxPgXe-59" source="XbB_H-YyX2xKbeKxPgXe-62" target="XbB_H-YyX2xKbeKxPgXe-63" edge="1">
          <mxGeometry relative="1" as="geometry" />
        </mxCell>
        <mxCell id="XbB_H-YyX2xKbeKxPgXe-154" value="" style="edgeStyle=orthogonalEdgeStyle;rounded=0;orthogonalLoop=1;jettySize=auto;html=1;strokeColor=#FF3333;" parent="XbB_H-YyX2xKbeKxPgXe-59" source="XbB_H-YyX2xKbeKxPgXe-151" edge="1">
          <mxGeometry relative="1" as="geometry">
            <mxPoint x="107" y="480" as="targetPoint" />
          </mxGeometry>
        </mxCell>
        <mxCell id="XbB_H-YyX2xKbeKxPgXe-151" value="WriteWithSeqNumber" style="fillColor=#f8cecc;strokeColor=#b85450;" parent="XbB_H-YyX2xKbeKxPgXe-59" vertex="1">
          <mxGeometry x="47" y="350" width="120" height="50" as="geometry" />
        </mxCell>
        <mxCell id="XbB_H-YyX2xKbeKxPgXe-153" value="GetLatestSequenceNumber" style="fillColor=#f8cecc;strokeColor=#b85450;" parent="XbB_H-YyX2xKbeKxPgXe-59" vertex="1">
          <mxGeometry x="27" y="480" width="150" height="50" as="geometry" />
        </mxCell>
        <mxCell id="XbB_H-YyX2xKbeKxPgXe-72" value="" style="edgeStyle=orthogonalEdgeStyle;rounded=0;orthogonalLoop=1;jettySize=auto;html=1;entryX=0;entryY=0.5;entryDx=0;entryDy=0;" parent="1" source="XbB_H-YyX2xKbeKxPgXe-71" target="XbB_H-YyX2xKbeKxPgXe-68" edge="1">
          <mxGeometry relative="1" as="geometry">
            <mxPoint x="-310" y="247" as="targetPoint" />
          </mxGeometry>
        </mxCell>
        <mxCell id="XbB_H-YyX2xKbeKxPgXe-100" style="edgeStyle=orthogonalEdgeStyle;rounded=0;orthogonalLoop=1;jettySize=auto;html=1;entryX=0;entryY=0.5;entryDx=0;entryDy=0;strokeColor=#009900;strokeWidth=3;exitX=1;exitY=0;exitDx=0;exitDy=0;dashed=1;" parent="1" source="34" target="33" edge="1">
          <mxGeometry relative="1" as="geometry">
            <mxPoint x="-192" y="232" as="sourcePoint" />
            <Array as="points">
              <mxPoint x="-197" y="207" />
            </Array>
          </mxGeometry>
        </mxCell>
        <mxCell id="XbB_H-YyX2xKbeKxPgXe-101" style="edgeStyle=orthogonalEdgeStyle;rounded=0;orthogonalLoop=1;jettySize=auto;html=1;entryX=0;entryY=0.5;entryDx=0;entryDy=0;strokeColor=#009900;strokeWidth=3;exitX=1;exitY=0.5;exitDx=0;exitDy=0;dashed=1;" parent="1" source="34" target="XbB_H-YyX2xKbeKxPgXe-44" edge="1">
          <mxGeometry relative="1" as="geometry">
            <mxPoint x="-172" y="248" as="sourcePoint" />
            <mxPoint x="-95" y="217" as="targetPoint" />
          </mxGeometry>
        </mxCell>
        <mxCell id="XbB_H-YyX2xKbeKxPgXe-107" style="edgeStyle=orthogonalEdgeStyle;rounded=0;orthogonalLoop=1;jettySize=auto;html=1;entryX=1;entryY=0.5;entryDx=0;entryDy=0;strokeColor=#009900;strokeWidth=3;exitX=0.25;exitY=1;exitDx=0;exitDy=0;dashed=1;" parent="1" source="34" target="10" edge="1">
          <mxGeometry relative="1" as="geometry">
            <mxPoint x="-187" y="245" as="sourcePoint" />
            <mxPoint x="158" y="245" as="targetPoint" />
          </mxGeometry>
        </mxCell>
        <mxCell id="XbB_H-YyX2xKbeKxPgXe-110" value="Threads: ReceiveCheckPointTask" style="swimlane;whiteSpace=wrap;fillColor=#fff2cc;strokeColor=#d6b656;" parent="1" vertex="1">
          <mxGeometry x="610" y="100" width="220" height="570" as="geometry" />
        </mxCell>
        <mxCell id="XbB_H-YyX2xKbeKxPgXe-111" value="" style="ellipse;shape=startState;fillColor=#000000;strokeColor=#ff0000;" parent="XbB_H-YyX2xKbeKxPgXe-110" vertex="1">
          <mxGeometry x="100" y="40" width="30" height="30" as="geometry" />
        </mxCell>
        <mxCell id="XbB_H-YyX2xKbeKxPgXe-112" value="" style="edgeStyle=elbowEdgeStyle;elbow=horizontal;verticalAlign=bottom;endArrow=open;endSize=8;strokeColor=#FF0000;endFill=1;rounded=0" parent="XbB_H-YyX2xKbeKxPgXe-110" source="XbB_H-YyX2xKbeKxPgXe-111" target="XbB_H-YyX2xKbeKxPgXe-113" edge="1">
          <mxGeometry x="100" y="40" as="geometry">
            <mxPoint x="115" y="110" as="targetPoint" />
          </mxGeometry>
        </mxCell>
        <mxCell id="XbB_H-YyX2xKbeKxPgXe-113" value="RequestFile" style="" parent="XbB_H-YyX2xKbeKxPgXe-110" vertex="1">
          <mxGeometry x="60" y="110" width="110" height="50" as="geometry" />
        </mxCell>
        <mxCell id="XbB_H-YyX2xKbeKxPgXe-114" value="ApplyCheckPoint" style="fillColor=#f8cecc;strokeColor=#b85450;" parent="XbB_H-YyX2xKbeKxPgXe-110" vertex="1">
          <mxGeometry x="60" y="220" width="110" height="50" as="geometry" />
        </mxCell>
        <mxCell id="XbB_H-YyX2xKbeKxPgXe-115" value="" style="endArrow=open;strokeColor=#FF0000;endFill=1;rounded=0" parent="XbB_H-YyX2xKbeKxPgXe-110" source="XbB_H-YyX2xKbeKxPgXe-113" target="XbB_H-YyX2xKbeKxPgXe-114" edge="1">
          <mxGeometry relative="1" as="geometry" />
        </mxCell>
        <mxCell id="XbB_H-YyX2xKbeKxPgXe-146" value="" style="edgeStyle=orthogonalEdgeStyle;rounded=0;orthogonalLoop=1;jettySize=auto;html=1;" parent="XbB_H-YyX2xKbeKxPgXe-110" source="XbB_H-YyX2xKbeKxPgXe-116" target="XbB_H-YyX2xKbeKxPgXe-145" edge="1">
          <mxGeometry relative="1" as="geometry" />
        </mxCell>
        <mxCell id="XbB_H-YyX2xKbeKxPgXe-116" value="Remove" style="fillColor=#f8cecc;strokeColor=#b85450;" parent="XbB_H-YyX2xKbeKxPgXe-110" vertex="1">
          <mxGeometry x="60" y="325" width="110" height="50" as="geometry" />
        </mxCell>
        <mxCell id="XbB_H-YyX2xKbeKxPgXe-117" value="" style="endArrow=open;strokeColor=#FF0000;endFill=1;rounded=0" parent="XbB_H-YyX2xKbeKxPgXe-110" source="XbB_H-YyX2xKbeKxPgXe-114" target="XbB_H-YyX2xKbeKxPgXe-116" edge="1">
          <mxGeometry relative="1" as="geometry" />
        </mxCell>
        <mxCell id="XbB_H-YyX2xKbeKxPgXe-145" value="Open" style="" parent="XbB_H-YyX2xKbeKxPgXe-110" vertex="1">
          <mxGeometry x="60" y="455" width="110" height="50" as="geometry" />
        </mxCell>
        <mxCell id="XbB_H-YyX2xKbeKxPgXe-119" value="Threads:SendCheckPointTask" style="swimlane;whiteSpace=wrap;fillColor=#ffe6cc;strokeColor=#d79b00;" parent="1" vertex="1">
          <mxGeometry x="830" y="100" width="230" height="580" as="geometry" />
        </mxCell>
        <mxCell id="XbB_H-YyX2xKbeKxPgXe-120" value="" style="ellipse;shape=startState;fillColor=#000000;strokeColor=#ff0000;" parent="XbB_H-YyX2xKbeKxPgXe-119" vertex="1">
          <mxGeometry x="100" y="40" width="30" height="30" as="geometry" />
        </mxCell>
        <mxCell id="XbB_H-YyX2xKbeKxPgXe-121" value="" style="edgeStyle=elbowEdgeStyle;elbow=horizontal;verticalAlign=bottom;endArrow=open;endSize=8;strokeColor=#FF0000;endFill=1;rounded=0" parent="XbB_H-YyX2xKbeKxPgXe-119" source="XbB_H-YyX2xKbeKxPgXe-120" target="XbB_H-YyX2xKbeKxPgXe-122" edge="1">
          <mxGeometry x="100" y="40" as="geometry">
            <mxPoint x="115" y="110" as="targetPoint" />
          </mxGeometry>
        </mxCell>
        <mxCell id="XbB_H-YyX2xKbeKxPgXe-122" value="GenerateCheckPoint" style="" parent="XbB_H-YyX2xKbeKxPgXe-119" vertex="1">
          <mxGeometry x="60" y="110" width="110" height="50" as="geometry" />
        </mxCell>
        <mxCell id="XbB_H-YyX2xKbeKxPgXe-148" value="" style="edgeStyle=orthogonalEdgeStyle;rounded=0;orthogonalLoop=1;jettySize=auto;html=1;" parent="XbB_H-YyX2xKbeKxPgXe-119" source="XbB_H-YyX2xKbeKxPgXe-123" target="XbB_H-YyX2xKbeKxPgXe-147" edge="1">
          <mxGeometry relative="1" as="geometry" />
        </mxCell>
        <mxCell id="XbB_H-YyX2xKbeKxPgXe-123" value="Checkpoint::Create" style="fillColor=#f8cecc;strokeColor=#b85450;" parent="XbB_H-YyX2xKbeKxPgXe-119" vertex="1">
          <mxGeometry x="60" y="220" width="110" height="50" as="geometry" />
        </mxCell>
        <mxCell id="XbB_H-YyX2xKbeKxPgXe-124" value="" style="endArrow=open;strokeColor=#FF0000;endFill=1;rounded=0" parent="XbB_H-YyX2xKbeKxPgXe-119" source="XbB_H-YyX2xKbeKxPgXe-122" target="XbB_H-YyX2xKbeKxPgXe-123" edge="1">
          <mxGeometry relative="1" as="geometry" />
        </mxCell>
        <mxCell id="XbB_H-YyX2xKbeKxPgXe-147" value="SendFullReplicate" style="" parent="XbB_H-YyX2xKbeKxPgXe-119" vertex="1">
          <mxGeometry x="60" y="350" width="110" height="50" as="geometry" />
        </mxCell>
        <mxCell id="XbB_H-YyX2xKbeKxPgXe-128" value="DataTransport:Threads:StartBatchFunc" style="swimlane;whiteSpace=wrap;fillColor=#f8cecc;strokeColor=#b85450;startSize=23;" parent="1" vertex="1">
          <mxGeometry x="1060" y="100" width="220" height="580" as="geometry" />
        </mxCell>
        <mxCell id="XbB_H-YyX2xKbeKxPgXe-129" value="" style="ellipse;shape=startState;fillColor=#000000;strokeColor=#ff0000;" parent="XbB_H-YyX2xKbeKxPgXe-128" vertex="1">
          <mxGeometry x="100" y="40" width="30" height="30" as="geometry" />
        </mxCell>
        <mxCell id="XbB_H-YyX2xKbeKxPgXe-130" value="" style="edgeStyle=elbowEdgeStyle;elbow=horizontal;verticalAlign=bottom;endArrow=open;endSize=8;strokeColor=#FF0000;endFill=1;rounded=0" parent="XbB_H-YyX2xKbeKxPgXe-128" source="XbB_H-YyX2xKbeKxPgXe-129" target="XbB_H-YyX2xKbeKxPgXe-131" edge="1">
          <mxGeometry x="100" y="40" as="geometry">
            <mxPoint x="115" y="110" as="targetPoint" />
          </mxGeometry>
        </mxCell>
        <mxCell id="XbB_H-YyX2xKbeKxPgXe-131" value="GetLatestSequenceNumber" style="fillColor=#f8cecc;strokeColor=#b85450;" parent="XbB_H-YyX2xKbeKxPgXe-128" vertex="1">
          <mxGeometry x="42" y="110" width="150" height="50" as="geometry" />
        </mxCell>
        <mxCell id="XbB_H-YyX2xKbeKxPgXe-132" value="GetBinlog" style="fillColor=#f8cecc;strokeColor=#b85450;" parent="XbB_H-YyX2xKbeKxPgXe-128" vertex="1">
          <mxGeometry x="60" y="220" width="110" height="50" as="geometry" />
        </mxCell>
        <mxCell id="XbB_H-YyX2xKbeKxPgXe-133" value="" style="endArrow=open;strokeColor=#FF0000;endFill=1;rounded=0" parent="XbB_H-YyX2xKbeKxPgXe-128" source="XbB_H-YyX2xKbeKxPgXe-131" target="XbB_H-YyX2xKbeKxPgXe-132" edge="1">
          <mxGeometry relative="1" as="geometry" />
        </mxCell>
        <mxCell id="XbB_H-YyX2xKbeKxPgXe-150" value="" style="edgeStyle=orthogonalEdgeStyle;rounded=0;orthogonalLoop=1;jettySize=auto;html=1;" parent="XbB_H-YyX2xKbeKxPgXe-128" source="XbB_H-YyX2xKbeKxPgXe-134" target="XbB_H-YyX2xKbeKxPgXe-149" edge="1">
          <mxGeometry relative="1" as="geometry" />
        </mxCell>
        <mxCell id="XbB_H-YyX2xKbeKxPgXe-134" value="GetUpdatesSince" style="fillColor=#f8cecc;strokeColor=#b85450;" parent="XbB_H-YyX2xKbeKxPgXe-128" vertex="1">
          <mxGeometry x="60" y="325" width="110" height="50" as="geometry" />
        </mxCell>
        <mxCell id="XbB_H-YyX2xKbeKxPgXe-135" value="" style="endArrow=open;strokeColor=#FF0000;endFill=1;rounded=0" parent="XbB_H-YyX2xKbeKxPgXe-128" source="XbB_H-YyX2xKbeKxPgXe-132" target="XbB_H-YyX2xKbeKxPgXe-134" edge="1">
          <mxGeometry relative="1" as="geometry" />
        </mxCell>
        <mxCell id="XbB_H-YyX2xKbeKxPgXe-136" value="" style="edgeStyle=elbowEdgeStyle;elbow=horizontal;strokeColor=#FF0000;endArrow=open;endFill=1;rounded=0;exitX=0;exitY=0.5;exitDx=0;exitDy=0;" parent="XbB_H-YyX2xKbeKxPgXe-128" source="XbB_H-YyX2xKbeKxPgXe-149" target="XbB_H-YyX2xKbeKxPgXe-131" edge="1">
          <mxGeometry width="100" height="100" relative="1" as="geometry">
            <mxPoint x="160" y="290" as="sourcePoint" />
            <mxPoint x="260" y="190" as="targetPoint" />
            <Array as="points">
              <mxPoint x="30" y="250" />
            </Array>
          </mxGeometry>
        </mxCell>
        <mxCell id="XbB_H-YyX2xKbeKxPgXe-149" value="SendData" style="" parent="XbB_H-YyX2xKbeKxPgXe-128" vertex="1">
          <mxGeometry x="60" y="455" width="110" height="50" as="geometry" />
        </mxCell>
        <mxCell id="XbB_H-YyX2xKbeKxPgXe-137" value="" style="edgeStyle=orthogonalEdgeStyle;rounded=0;orthogonalLoop=1;jettySize=auto;html=1;entryX=0;entryY=0.5;entryDx=0;entryDy=0;exitX=1;exitY=0.5;exitDx=0;exitDy=0;" parent="1" source="XbB_H-YyX2xKbeKxPgXe-54" target="XbB_H-YyX2xKbeKxPgXe-62" edge="1">
          <mxGeometry relative="1" as="geometry">
            <mxPoint x="810" y="420" as="targetPoint" />
          </mxGeometry>
        </mxCell>
      </root>
    </mxGraphModel>
  </diagram>
</mxfile>
